<svg id="Capa_1" enable-background="new 0 0 512 512" height="60" viewBox="0 0 512 512" width="100" xmlns="http://www.w3.org/2000/svg"><g id="XMLID_1508_"><path id="XMLID_1768_" d="m31.997 168.664v277.336h448v-277.336z" fill="#adeefa"/><path id="XMLID_1764_" d="m324.142 446h177.858v56h-492v-56h177.847z" fill="#e2e9ee"/><path id="XMLID_1761_" d="m455.997 10h-400c-13.255 0-24 10.745-24 24v40h448v-40c0-13.255-10.745-24-24-24z" fill="#ff7d97"/><path id="XMLID_1759_" d="m502 130h-492l21.997-56h448z" fill="#fff"/><path id="XMLID_1743_" d="m256 130v24.958c0 22.644-18.356 38-41 38-22.644 0-41-15.356-41-38v-24.958z" fill="#ff7d97"/><path id="XMLID_1742_" d="m338 130v24.958c0 22.644-18.356 38-41 38-22.644 0-41-15.356-41-38v-24.958z" fill="#fff"/><path id="XMLID_1738_" d="m420 130v24.958c0 22.644-18.356 38-41 38-22.644 0-41-15.356-41-38v-24.958z" fill="#ff7d97"/><path id="XMLID_1735_" d="m502 130v24.958c0 22.644-18.356 38-41 38-22.644 0-41-15.356-41-38v-24.958z" fill="#fff"/><path id="XMLID_1520_" d="m92 130v24.958c0 22.644-18.356 38-41 38-22.644 0-41-15.356-41-38v-24.958z" fill="#ff7d97"/><path id="XMLID_1519_" d="m174 130v24.958c0 22.644-18.356 38-41 38-22.644 0-41-15.356-41-38v-24.958z" fill="#fff"/><path id="XMLID_1542_" d="m374.862 377.318-32.981 19.042 39.615 68.615-61.285 35.383-39.615-68.615-24.599 14.202v-137.254z" fill="#ffec80"/><g id="XMLID_1605_"><path id="XMLID_1608_" d="m512 154.958v-24.958c0-1.251-.235-2.492-.693-3.657l-21.31-54.237v-38.106c0-18.748-15.252-34-34-34h-400c-18.748 0-34 15.252-34 34v38.106l-21.305 54.238c-.457 1.165-.692 2.405-.692 3.656v24.958c0 17.064 8.528 31.51 21.997 39.969v241.073h-11.997c-5.523 0-10 4.477-10 10v56c0 5.523 4.477 10 10 10h492c5.523 0 10-4.477 10-10v-56c0-5.523-4.477-10-10-10h-12.003v-241.069c13.473-8.458 22.003-22.906 22.003-39.973zm-51 28c-17.962 0-31-11.775-31-28v-14.958h62v14.958c0 16.225-13.038 28-31 28zm-51-28c0 16.224-13.038 28-31 28s-31-11.776-31-28v-14.958h62zm-82 0c0 16.224-13.038 28-31 28s-31-11.776-31-28v-14.958h62zm-82 0c0 16.224-13.038 28-31 28s-31-11.776-31-28v-14.958h62zm-82 0c0 16.224-13.038 28-31 28s-31-11.776-31-28v-14.958h62zm-108.003-134.958h400c7.72 0 14 6.28 14 14v30h-169c-5.523 0-10 4.477-10 10s4.477 10 10 10h172.185l14.145 36h-462.655l14.141-36h172.184c5.523 0 10-4.477 10-10s-4.477-10-10-10h-169v-30c0-7.72 6.28-14 14-14zm-35.997 120h62v14.958c0 16.224-13.038 28-31 28s-31-11.775-31-28zm0 316h263.054l20.785 36h-283.839zm313.221-54.64 34.614 59.955-43.965 25.383-34.615-59.955c-1.326-2.297-3.51-3.973-6.072-4.659-.852-.228-1.722-.341-2.588-.341-1.741 0-3.467.455-5 1.34l-9.599 5.542v-102.613l88.865 51.307-17.98 10.381c-4.782 2.761-6.422 8.877-3.66 13.66zm158.779 90.64h-137.314l31.809-18.365c4.783-2.761 6.422-8.877 3.66-13.66l-2.294-3.975h104.139zm-22.003-56h-93.683l-20.773-35.98 24.321-14.042c3.094-1.786 5-5.087 5-8.66s-1.906-6.874-5-8.66l-118.865-68.627c-3.094-1.786-6.905-1.786-10 0-3.094 1.786-5 5.087-5 8.66v127.309h-204v-233.738c2.91.449 5.913.696 9.003.696 17.181 0 31.861-7.208 41-18.75 9.139 11.542 23.819 18.75 41 18.75s31.861-7.209 41-18.75c9.139 11.542 23.819 18.75 41 18.75s31.861-7.209 41-18.75c9.139 11.542 23.819 18.75 41 18.75s31.861-7.209 41-18.75c9.139 11.542 23.819 18.75 41 18.75s31.861-7.209 41-18.75c9.139 11.541 23.819 18.75 41 18.75 3.088 0 6.088-.246 8.997-.695z"/><path id="XMLID_1621_" d="m192.06 234.438c-3.905-3.905-10.237-3.905-14.143 0-3.905 3.905-3.905 10.237 0 14.143l34.333 34.333c1.953 1.953 4.512 2.929 7.071 2.929s5.119-.976 7.071-2.929c3.905-3.905 3.905-10.237 0-14.143z"/><path id="XMLID_1622_" d="m256 221.498c-5.523 0-10 4.477-10 10v28.46c0 5.523 4.477 10 10 10s10-4.477 10-10v-28.46c0-5.523-4.477-10-10-10z"/><path id="XMLID_1623_" d="m197.776 302.525h-31.776c-5.523 0-10 4.477-10 10s4.477 10 10 10h31.776c5.523 0 10-4.477 10-10s-4.477-10-10-10z"/><path id="XMLID_1627_" d="m256 84c2.63 0 5.21-1.07 7.07-2.93s2.93-4.44 2.93-7.07-1.07-5.21-2.93-7.07-4.44-2.93-7.07-2.93-5.21 1.07-7.07 2.93c-1.87 1.86-2.93 4.44-2.93 7.07s1.06 5.21 2.93 7.07c1.86 1.86 4.44 2.93 7.07 2.93z"/></g></g></svg>